<svg xmlns="http://www.w3.org/2000/svg" width="512" height="512" viewBox="0 0 512 512" role="img" aria-label="Apple Pay">
  <rect width="512" height="512" rx="64" fill="#111111"/>
  <g fill="#ffffff">
    <path d="M188 122c14-17 24-41 21-64-21 1-46 14-61 32-14 16-26 40-22 63 24 2 48-12 62-31Zm78 229c-17 0-31-7-44-7-14 0-29 8-46 8-36 0-70-34-92-93-25-66-12-144 31-178 20-16 44-24 66-24 24 0 46 10 61 10 14 0 40-12 69-10 12 1 46 5 68 38-2 1-41 24-41 71 1 56 50 74 51 74-1 2-8 28-26 56-16 24-32 48-57 49-24 1-32-14-60-14Z"/>
    <path d="M302 382h128v20H302z"/>
    <text x="302" y="344" font-family="Arial, Helvetica, sans-serif" font-size="56" font-weight="700">Pay</text>
  </g>
</svg>
